<svg xmlns="http://www.w3.org/2000/svg" xmlns:xlink="http://www.w3.org/1999/xlink" version="1.1" width="256" height="256" viewBox="0 0 256 256" xml:space="preserve">

<defs>
</defs>
<g style="stroke: none; stroke-width: 0; stroke-dasharray: none; stroke-linecap: butt; stroke-linejoin: miter; stroke-miterlimit: 10; fill: none; fill-rule: nonzero; opacity: 1;" transform="translate(1.4065934065934016 1.4065934065934016) scale(2.81 2.81)" >
	<path d="M 26.615 26.615 c -10.137 10.137 -10.137 26.632 0 36.77 c 5.068 5.068 11.727 7.603 18.385 7.603 s 13.316 -2.534 18.385 -7.603 c 10.137 -10.138 10.137 -26.632 0 -36.77 C 53.248 16.478 36.752 16.478 26.615 26.615 z M 60.557 60.557 c -8.58 8.577 -22.537 8.576 -31.113 0 c -8.578 -8.578 -8.578 -22.536 0 -31.113 c 4.29 -4.289 9.922 -6.433 15.557 -6.433 c 5.633 0 11.268 2.145 15.557 6.433 C 69.134 38.021 69.134 51.979 60.557 60.557 z" style="stroke: none; stroke-width: 1; stroke-dasharray: none; stroke-linecap: butt; stroke-linejoin: miter; stroke-miterlimit: 10; fill: rgb(0,0,0); fill-rule: nonzero; opacity: 1;" transform=" matrix(1 0 0 1 0 0) " stroke-linecap="round" />
	<polygon points="34,56 49.08,49.08 56,34 40.92,40.92 " style="stroke: none; stroke-width: 1; stroke-dasharray: none; stroke-linecap: butt; stroke-linejoin: miter; stroke-miterlimit: 10; fill: rgb(0,0,0); fill-rule: nonzero; opacity: 1;" transform="  matrix(1 0 0 1 0 0) "/>
	<path d="M 45 0 C 20.187 0 0 20.187 0 45 c 0 24.813 20.187 45 45 45 c 24.813 0 45 -20.187 45 -45 C 90 20.187 69.813 0 45 0 z M 45 86 C 22.393 86 4 67.607 4 45 S 22.393 4 45 4 s 41 18.393 41 41 S 67.607 86 45 86 z" style="stroke: none; stroke-width: 1; stroke-dasharray: none; stroke-linecap: butt; stroke-linejoin: miter; stroke-miterlimit: 10; fill: rgb(0,0,0); fill-rule: nonzero; opacity: 1;" transform=" matrix(1 0 0 1 0 0) " stroke-linecap="round" />
</g>
</svg>