<svg xmlns="http://www.w3.org/2000/svg" xmlns:xlink="http://www.w3.org/1999/xlink" version="1.1" width="256" height="256" viewBox="0 0 256 256" xml:space="preserve">

<defs>
</defs>
<g style="stroke: none; stroke-width: 0; stroke-dasharray: none; stroke-linecap: butt; stroke-linejoin: miter; stroke-miterlimit: 10; fill: none; fill-rule: nonzero; opacity: 1;" transform="translate(1.4065934065934016 1.4065934065934016) scale(2.81 2.81)" >
	<path d="M 63.854 49.825 c -0.007 -0.022 -0.021 -0.041 -0.028 -0.063 c -0.035 -0.102 -0.08 -0.201 -0.132 -0.297 c -0.02 -0.038 -0.037 -0.077 -0.06 -0.114 c -0.079 -0.126 -0.169 -0.247 -0.279 -0.357 L 36.047 21.685 c -3.574 -3.574 -9.39 -3.574 -12.964 0 l -1.398 1.398 c -3.574 3.574 -3.574 9.39 0 12.964 l 27.309 27.309 c 0.11 0.11 0.231 0.2 0.357 0.279 c 0.037 0.023 0.076 0.039 0.114 0.06 c 0.097 0.052 0.195 0.097 0.297 0.132 c 0.022 0.008 0.041 0.021 0.063 0.028 l 16.592 5.059 C 66.608 68.972 66.805 69 67 69 c 0.522 0 1.033 -0.205 1.414 -0.586 c 0.522 -0.522 0.715 -1.29 0.499 -1.997 L 63.854 49.825 z M 24.513 25.911 l 1.398 -1.398 c 2.016 -2.015 5.293 -2.014 7.308 0 l 25.895 25.895 l -8.705 8.705 L 24.513 33.219 C 22.499 31.204 22.499 27.926 24.513 25.911 z M 54.178 61 L 61 54.178 l 2.992 9.814 L 54.178 61 z" style="stroke: none; stroke-width: 1; stroke-dasharray: none; stroke-linecap: butt; stroke-linejoin: miter; stroke-miterlimit: 10; fill: rgb(0,0,0); fill-rule: nonzero; opacity: 1;" transform=" matrix(1 0 0 1 0 0) " stroke-linecap="round" />
	<path d="M 45 0 C 20.187 0 0 20.187 0 45 c 0 24.813 20.187 45 45 45 c 24.813 0 45 -20.187 45 -45 C 90 20.187 69.813 0 45 0 z M 45 86 C 22.393 86 4 67.607 4 45 S 22.393 4 45 4 s 41 18.393 41 41 S 67.607 86 45 86 z" style="stroke: none; stroke-width: 1; stroke-dasharray: none; stroke-linecap: butt; stroke-linejoin: miter; stroke-miterlimit: 10; fill: rgb(0,0,0); fill-rule: nonzero; opacity: 1;" transform=" matrix(1 0 0 1 0 0) " stroke-linecap="round" />
</g>
</svg>