<svg xmlns="http://www.w3.org/2000/svg" xmlns:xlink="http://www.w3.org/1999/xlink" version="1.1" width="256" height="256" viewBox="0 0 256 256" xml:space="preserve">

<defs>
</defs>
<g style="stroke: none; stroke-width: 0; stroke-dasharray: none; stroke-linecap: butt; stroke-linejoin: miter; stroke-miterlimit: 10; fill: none; fill-rule: nonzero; opacity: 1;" transform="translate(1.4065934065934016 1.4065934065934016) scale(2.81 2.81)" >
	<path d="M 52.014 23.252 c -0.665 -0.343 -1.467 -0.285 -2.077 0.15 l -17.26 12.32 H 20 c -1.104 0 -2 0.896 -2 2 v 14.555 c 0 1.104 0.896 2 2 2 h 12.676 l 17.26 12.32 c 0.346 0.247 0.753 0.372 1.162 0.372 c 0.313 0 0.627 -0.073 0.915 -0.222 c 0.666 -0.343 1.085 -1.029 1.085 -1.778 V 25.031 C 53.099 24.282 52.68 23.595 52.014 23.252 z M 22 39.723 h 9.317 v 10.555 H 22 V 39.723 z M 49.099 61.085 l -13.782 -9.837 V 38.752 l 13.782 -9.837 V 61.085 z" style="stroke: none; stroke-width: 1; stroke-dasharray: none; stroke-linecap: butt; stroke-linejoin: miter; stroke-miterlimit: 10; fill: rgb(0,0,0); fill-rule: nonzero; opacity: 1;" transform=" matrix(1 0 0 1 0 0) " stroke-linecap="round" />
	<path d="M 62.625 45 c 0 -2.436 -1.554 -4.508 -3.724 -5.282 v 10.564 C 61.071 49.508 62.625 47.436 62.625 45 z" style="stroke: none; stroke-width: 1; stroke-dasharray: none; stroke-linecap: butt; stroke-linejoin: miter; stroke-miterlimit: 10; fill: rgb(0,0,0); fill-rule: nonzero; opacity: 1;" transform=" matrix(1 0 0 1 0 0) " stroke-linecap="round" />
	<path d="M 60.268 30.868 c -1.092 -0.202 -2.13 0.515 -2.332 1.6 c -0.202 1.086 0.514 2.13 1.6 2.333 C 64.44 35.714 68 40.003 68 45 c 0 4.996 -3.561 9.285 -8.465 10.2 c -1.086 0.202 -1.803 1.246 -1.6 2.332 c 0.179 0.962 1.02 1.634 1.964 1.634 c 0.121 0 0.245 -0.011 0.368 -0.034 C 67.066 57.865 72 51.922 72 45 C 72 38.078 67.065 32.134 60.268 30.868 z" style="stroke: none; stroke-width: 1; stroke-dasharray: none; stroke-linecap: butt; stroke-linejoin: miter; stroke-miterlimit: 10; fill: rgb(0,0,0); fill-rule: nonzero; opacity: 1;" transform=" matrix(1 0 0 1 0 0) " stroke-linecap="round" />
	<path d="M 45 0 C 20.187 0 0 20.187 0 45 c 0 24.813 20.187 45 45 45 c 24.813 0 45 -20.187 45 -45 C 90 20.187 69.813 0 45 0 z M 45 86 C 22.393 86 4 67.607 4 45 S 22.393 4 45 4 s 41 18.393 41 41 S 67.607 86 45 86 z" style="stroke: none; stroke-width: 1; stroke-dasharray: none; stroke-linecap: butt; stroke-linejoin: miter; stroke-miterlimit: 10; fill: rgb(0,0,0); fill-rule: nonzero; opacity: 1;" transform=" matrix(1 0 0 1 0 0) " stroke-linecap="round" />
</g>
</svg>