<?xml version="1.0" encoding="iso-8859-1"?>
<!-- Uploaded to: SVG Repo, www.svgrepo.com, Generator: SVG Repo Mixer Tools -->
<!DOCTYPE svg PUBLIC "-//W3C//DTD SVG 1.1//EN" "http://www.w3.org/Graphics/SVG/1.1/DTD/svg11.dtd">
<svg version="1.1" id="Capa_1" xmlns="http://www.w3.org/2000/svg"
	xmlns:xlink="http://www.w3.org/1999/xlink"
	viewBox="0 0 234.231 234.231" xml:space="preserve">
<defs>
	<filter id="Adobe_OpacityMaskFilter" filterUnits="userSpaceOnUse" x="5.485" y="0" width="223.261" height="234.231">
		<feColorMatrix  type="matrix" values="1 0 0 0 0  0 1 0 0 0  0 0 1 0 0  0 0 0 1 0"/>
	</filter>
</defs>
<mask maskUnits="userSpaceOnUse" x="5.485" y="0" width="223.261" height="234.231" id="SVGID_1_">
	<g style="filter:url(#Adobe_OpacityMaskFilter);">
		<rect x="2.937" y="-55.466" style="fill:#FFFFFF;" width="229.897" height="344.846"/>
	</g>
</mask>
<g style="mask:url(#SVGID_1_);">
	<g>
		<path style="fill:yellow;" d="M158.806,117.116l-14.243-2.784l84.184-32.727l-0.429-1.32l-87.436,22.992l9.938-10.684
			l-13.052,6.065l48.783-75.881l-1.124-0.816L128.21,91.956l1.755-14.488l-6.987,12.566L117.81,0h-1.388l-5.167,90.036
			l-6.988-12.568l1.754,14.486L48.805,21.96l-1.123,0.815l48.782,75.883l-13.053-6.065l9.938,10.684L5.915,80.285l-0.429,1.32
			l84.182,32.727l-14.242,2.784l14.242,2.783L5.485,152.626l0.43,1.32l87.435-22.993l-9.938,10.685l13.052-6.065L47.68,211.456
			l1.124,0.814l57.219-69.995l-1.755,14.489l6.987-12.568l5.167,90.035h1.388l5.168-90.035l6.987,12.567l-1.755-14.486
			l57.217,69.993l1.122-0.814l-48.782-75.884l13.054,6.066l-9.937-10.684l87.433,22.993l0.429-1.32l-84.182-32.728L158.806,117.116z
			 M151.558,117.116l-9.419,1.841l-1.153-0.448l5.971-1.393l-5.972-1.392l1.153-0.449L151.558,117.116z M136.286,131.079
			l-1.933-0.815l-0.794-1.236l1.233,0.325L136.286,131.079z M124.414,139.681l-1.076-1.78l0.085-1.479l0.799,0.976L124.414,139.681z
			 M110.01,137.398l0.798-0.976l0.086,1.479l-1.076,1.78L110.01,137.398z M99.438,129.353l1.232-0.325l-0.794,1.236l-1.932,0.814
			L99.438,129.353z M93.397,117.116l2.145-0.501l1.285,0.501l-1.285,0.499L93.397,117.116z M97.945,103.153l1.932,0.813l0.794,1.237
			l-1.232-0.324L97.945,103.153z M109.817,94.55l1.076,1.782l-0.086,1.478l-0.798-0.977L109.817,94.55z M124.222,96.835
			l-0.798,0.975l-0.085-1.48l1.075-1.78L124.222,96.835z M134.793,104.879l-1.233,0.325l0.796-1.236l1.931-0.814L134.793,104.879z
			 M140.834,117.116l-2.145,0.499l-1.285-0.499l1.285-0.501L140.834,117.116z M130.388,128.592l-0.058-0.024l-0.543-0.83
			l0.095,0.019L130.388,128.592z M103.844,128.592l0.505-0.834l0.096-0.019l-0.543,0.828L103.844,128.592z M103.844,105.638
			l0.058,0.024l0.543,0.83l-0.096-0.019L103.844,105.638z M130.388,105.639l-0.504,0.834l-0.097,0.019l0.542-0.829L130.388,105.639z
			 M116.817,134.189l0.299-0.535l0.297,0.535l-0.297,23.213L116.817,134.189z M117.413,100.043l-0.297,0.535l-0.299-0.535
			l0.299-23.213L117.413,100.043z M130.027,121.323l-0.29,0.057l-0.18-0.207l0.27-0.064L130.027,121.323z M125.099,128.152
			l-0.275-0.128l-0.023-0.278l0.263,0.11L125.099,128.152z M109.17,127.856l0.262-0.11l-0.023,0.279l-0.274,0.127L109.17,127.856z
			 M104.403,121.109l0.271,0.064l-0.18,0.207l-0.29-0.057L104.403,121.109z M104.205,112.908l0.29-0.057l0.18,0.207l-0.271,0.063
			L104.205,112.908z M109.133,106.079l0.275,0.128l0.023,0.279l-0.264-0.111L109.133,106.079z M125.062,106.375l-0.263,0.11
			l0.023-0.279l0.275-0.128L125.062,106.375z M129.827,113.122l-0.271-0.063l0.179-0.207l0.291,0.058L129.827,113.122z
			 M119.06,120.006l-0.002-0.157l0.112,0.039l-0.089,0.11L119.06,120.006z M115.15,119.999l-0.089-0.111l0.111-0.039l-0.001,0.157
			L115.15,119.999z M115.172,114.224l0.001,0.157l-0.111-0.038l0.09-0.111L115.172,114.224z M119.081,114.232l0.09,0.111
			l-0.113,0.038l0.002-0.156L119.081,114.232z M121.926,118.68l0.149-0.187l0.193,0.296l-0.332,0.124L121.926,118.68z
			 M121.926,115.553l0.011-0.236l0.332,0.126l-0.194,0.295L121.926,115.553z M120.401,115.935l0.008,0.171l-0.125-0.039l0.108-0.146
			L120.401,115.935z M120.151,113.015l-0.115-0.176l0.211-0.057l0.014,0.263L120.151,113.015z M116.602,116.934l0.227-0.306
			l0.287-0.088l0.285,0.088l0.229,0.307l0.003,0.172l-0.003,0.19l-0.229,0.307l-0.285,0.088l-0.287-0.088l-0.228-0.307l-0.003-0.171
			L116.602,116.934z M117.071,113.643l0.045-0.012l0,0l0.043,0.012l-0.043,0.063L117.071,113.643z M117.116,120.526l0.043,0.063
			l-0.043,0.012l-0.045-0.012L117.116,120.526z M113.946,116.067l-0.123,0.038l0.008-0.171l0.008-0.013L113.946,116.067z
			 M112.307,115.553l-0.149,0.185l-0.194-0.294l0.332-0.126L112.307,115.553z M112.307,118.68l-0.012,0.234l-0.332-0.125
			l0.194-0.296L112.307,118.68z M113.831,118.297l-0.009-0.171l0.124,0.038l-0.107,0.144L113.831,118.297z M114.08,121.217
			l0.116,0.176l-0.213,0.057l-0.012-0.263L114.08,121.217z M120.284,118.165l0.124-0.038l-0.009,0.174l-0.006,0.01L120.284,118.165z
			 M117.116,103.941l-0.146-0.241l0.146-0.261l0.145,0.261L117.116,103.941z M117.116,130.29l0.145,0.242l-0.145,0.261l-0.146-0.261
			L117.116,130.29z M132.747,112.023l0.434-0.465l24.138-7.484l-23.838,8.092L132.747,112.023z M126.779,103.764l0.066-0.546
			l14.815-19.839l-14.17,20.055L126.779,103.764z M107.452,103.764l-0.711-0.33L92.569,83.379l14.816,19.838L107.452,103.764z
			 M101.483,112.023l-0.732,0.143l-23.838-8.092l24.137,7.484L101.483,112.023z M101.483,122.208l-0.434,0.465l-24.143,7.485
			l23.844-8.094L101.483,122.208z M107.452,130.467l-0.065,0.546l-14.817,19.839l14.171-20.054L107.452,130.467z M126.779,130.466
			l0.711,0.332l14.171,20.054l-14.816-19.838L126.779,130.466z M132.748,122.209l0.732-0.144l23.843,8.094l-24.143-7.486
			L132.748,122.209z M133.667,115.947l0.818-0.312l0.065,0.015l-0.796,0.336L133.667,115.947z M131.994,108.115l-0.042,0.049
			l-0.782,0.213l0.044-0.08L131.994,108.115z M123.859,101.117l-0.007,0.072l-0.539,0.671l-0.012-0.1L123.859,101.117z
			 M121.074,101.144l-0.048-0.987l0.038-0.062l0.082,0.972L121.074,101.144z M113.157,101.144l-0.072-0.077l0.082-0.972l0.038,0.062
			L113.157,101.144z M110.917,101.86l-0.538-0.67l-0.006-0.074l0.556,0.644L110.917,101.86z M103.061,108.376l-0.78-0.211
			l-0.043-0.049l0.779,0.181L103.061,108.376z M99.681,115.65l0.064-0.015l0.818,0.312l-0.086,0.04L99.681,115.65z M100.563,118.285
			l-0.818,0.311l-0.065-0.015l0.798-0.336L100.563,118.285z M102.237,126.116l0.042-0.048l0.783-0.212l-0.044,0.078L102.237,126.116
			z M110.373,133.115l0.006-0.072l0.538-0.67l0.012,0.099L110.373,133.115z M113.157,133.088l0.048,0.987l-0.038,0.062l-0.082-0.971
			L113.157,133.088z M121.074,133.088l0.072,0.078l-0.082,0.971l-0.038-0.062L121.074,133.088z M123.313,132.371l0.539,0.671
			l0.007,0.073l-0.558-0.644L123.313,132.371z M131.17,125.855l0.782,0.212l0.042,0.049l-0.78-0.182L131.17,125.855z
			 M134.552,118.581l-0.066,0.015l-0.818-0.311l0.086-0.04L134.552,118.581z M151.094,110.188l20.589-8.678l7.815-2.968
			l18.142-6.336l-48.061,18.685L151.094,110.188z M178.141,95.628l-7.819,2.123l-21.731,5.067l-1.916,0.374l50.353-13.241
			L178.141,95.628z M140.522,91.555l11.559-19.128l4.307-6.581L167.7,49.527l-28.201,43.866L140.522,91.555z M153.782,63.961
			l-4.938,6.142l-14.6,16.88l-1.446,1.556l32.98-40.344L153.782,63.961z M120.977,82.566l-1.884-22.253l-0.337-6.957l-0.467-20.732
			l3.028,52.761L120.977,82.566z M115.476,53.356l-0.338,6.957l-1.883,22.253l-0.342,2.819l3.029-52.761L115.476,53.356z
			 M100.006,87.005L85.365,70.076l-4.913-6.111L68.42,48.151l33.021,40.396L100.006,87.005z M77.843,65.844l4.322,6.605
			l11.529,19.081l1.026,1.846l-28.16-43.803L77.843,65.844z M85.655,102.821l-21.75-5.072l-7.819-2.123l-18.915-5.685l50.404,13.255
			L85.655,102.821z M54.737,98.544l7.821,2.969l20.569,8.669l1.517,0.706l-48.023-18.67L54.737,98.544z M83.141,124.044
			l-20.595,8.679l-7.813,2.967l-18.143,6.335l48.061-18.684L83.141,124.044z M56.079,138.607l7.842-2.128l21.713-5.063l1.921-0.376
			l-50.352,13.241L56.079,138.607z M93.716,142.665l-11.571,19.149l-4.297,6.567l-11.313,16.315l28.196-43.858L93.716,142.665z
			 M80.446,170.275l4.943-6.148l14.597-16.878l1.446-1.554l-32.986,40.351L80.446,170.275z M113.257,151.676l1.881,22.243
			l0.338,6.956l0.467,20.732l-3.029-52.754L113.257,151.676z M118.756,180.874l0.337-6.956l1.884-22.252l0.341-2.812l-3.028,52.747
			L118.756,180.874z M134.231,147.233l14.63,16.917l4.921,6.121l12.036,15.818l-33.034-40.41L134.231,147.233z M156.388,168.384
			l-4.326-6.61l-11.529-19.082l-1.022-1.838l28.153,43.793L156.388,168.384z M148.579,131.411l21.748,5.072l7.816,2.122
			l18.915,5.685l-50.399-13.253L148.579,131.411z M179.506,135.693l-7.833-2.976l-20.572-8.67l-1.511-0.702l48.024,18.67
			L179.506,135.693z M144.965,96.847l-6.596,7.092l-1.196,0.314l4.059-4.694l-5.546,2.338l0.677-1.053L144.965,96.847z
			 M127.731,84.346l-1.166,9.621l-0.787,0.964l0.523-6.191l-3.104,5.136l-0.071-1.249L127.731,84.346z M106.5,84.346l4.606,8.283
			l-0.071,1.248l-3.104-5.137l0.523,6.19l-0.789-0.964L106.5,84.346z M89.267,96.847l8.604,3.997l0.676,1.053L93,99.56l4.06,4.693
			l-1.198-0.315L89.267,96.847z M82.674,117.116l9.419-1.841l1.154,0.449l-5.971,1.392l5.97,1.392l-1.153,0.449L82.674,117.116z
			 M89.267,137.385l6.596-7.092l1.196-0.315L93,134.671l5.546-2.338l-0.676,1.054L89.267,137.385z M106.501,149.886l1.165-9.621
			l0.788-0.964l-0.523,6.189l3.104-5.135l0.071,1.247L106.501,149.886z M127.731,149.886l-4.605-8.283l0.071-1.247l3.104,5.135
			l-0.523-6.189l0.788,0.964L127.731,149.886z M144.965,137.385l-8.604-3.999l-0.676-1.052l5.547,2.338l-4.059-4.693l1.197,0.315
			L144.965,137.385z"/>
	</g>
</g>
</svg>