<svg xmlns="http://www.w3.org/2000/svg" xmlns:xlink="http://www.w3.org/1999/xlink" version="1.1" width="256" height="256" viewBox="0 0 256 256" xml:space="preserve">

<defs>
</defs>
<g style="stroke: none; stroke-width: 0; stroke-dasharray: none; stroke-linecap: butt; stroke-linejoin: miter; stroke-miterlimit: 10; fill: none; fill-rule: nonzero; opacity: 1;" transform="translate(1.4065934065934016 1.4065934065934016) scale(2.81 2.81)" >
	<path d="M 60.75 52.294 c -0.512 0 -1.023 -0.195 -1.414 -0.586 C 55.507 47.879 50.415 45.77 45 45.77 c -5.416 0 -10.507 2.109 -14.336 5.938 c -0.78 0.781 -2.047 0.781 -2.828 0 s -0.781 -2.047 0 -2.828 c 4.584 -4.585 10.68 -7.11 17.164 -7.11 c 6.484 0 12.58 2.525 17.164 7.11 c 0.781 0.781 0.781 2.047 0 2.828 C 61.773 52.099 61.262 52.294 60.75 52.294 z" style="stroke: none; stroke-width: 1; stroke-dasharray: none; stroke-linecap: butt; stroke-linejoin: miter; stroke-miterlimit: 10; fill: rgb(0,0,0); fill-rule: nonzero; opacity: 1;" transform=" matrix(1 0 0 1 0 0) " stroke-linecap="round" />
	<path d="M 72 41.043 c -0.512 0 -1.023 -0.195 -1.414 -0.586 c -14.11 -14.108 -37.063 -14.107 -51.172 0 c -0.78 0.781 -2.048 0.781 -2.828 0 c -0.781 -0.781 -0.781 -2.047 0 -2.828 c 15.667 -15.667 41.159 -15.668 56.828 0 c 0.781 0.781 0.781 2.047 0 2.828 C 73.023 40.848 72.512 41.043 72 41.043 z" style="stroke: none; stroke-width: 1; stroke-dasharray: none; stroke-linecap: butt; stroke-linejoin: miter; stroke-miterlimit: 10; fill: rgb(0,0,0); fill-rule: nonzero; opacity: 1;" transform=" matrix(1 0 0 1 0 0) " stroke-linecap="round" />
	<circle cx="44.998000000000005" cy="62.208000000000006" r="3.938" style="stroke: none; stroke-width: 1; stroke-dasharray: none; stroke-linecap: butt; stroke-linejoin: miter; stroke-miterlimit: 10; fill: rgb(0,0,0); fill-rule: nonzero; opacity: 1;" transform="  matrix(1 0 0 1 0 0) "/>
	<path d="M 45 90 C 20.187 90 0 69.813 0 45 C 0 20.187 20.187 0 45 0 c 24.813 0 45 20.187 45 45 C 90 69.813 69.813 90 45 90 z M 45 4 C 22.393 4 4 22.393 4 45 s 18.393 41 41 41 s 41 -18.393 41 -41 S 67.607 4 45 4 z" style="stroke: none; stroke-width: 1; stroke-dasharray: none; stroke-linecap: butt; stroke-linejoin: miter; stroke-miterlimit: 10; fill: rgb(0,0,0); fill-rule: nonzero; opacity: 1;" transform=" matrix(1 0 0 1 0 0) " stroke-linecap="round" />
</g>
</svg>